<svg width="250" height="82" viewBox="0 0 250 82" fill="none" xmlns="http://www.w3.org/2000/svg">
<rect x="0.5" y="0.5" width="249" height="81" rx="6.5" fill="black"/>
<rect x="0.5" y="0.5" width="249" height="81" rx="6.5" stroke="#A6A6A6"/>
<path d="M126.178 44.5897C121.822 44.5897 118.272 48.2572 118.272 53.3084C118.272 58.3288 121.822 62.027 126.178 62.027C130.535 62.027 134.085 58.3288 134.085 53.3084C134.083 48.2572 130.533 44.5897 126.178 44.5897ZM126.178 58.5953C123.791 58.5953 121.733 56.4162 121.733 53.3104C121.733 50.1719 123.793 48.0255 126.178 48.0255C128.565 48.0255 130.622 50.1719 130.622 53.3104C130.622 56.4141 128.565 58.5953 126.178 58.5953ZM108.93 44.5897C104.574 44.5897 101.024 48.2572 101.024 53.3084C101.024 58.3288 104.574 62.027 108.93 62.027C113.287 62.027 116.837 58.3288 116.837 53.3084C116.837 48.2572 113.287 44.5897 108.93 44.5897ZM108.93 58.5953C106.543 58.5953 104.485 56.4162 104.485 53.3104C104.485 50.1719 106.544 48.0255 108.93 48.0255C111.317 48.0255 113.374 50.1719 113.374 53.3104C113.376 56.4141 111.317 58.5953 108.93 58.5953ZM88.4148 47.267V50.9652H96.4111C96.1722 53.046 95.5463 54.565 94.5907 55.6208C93.4278 56.9082 91.6074 58.3288 88.4148 58.3288C83.4926 58.3288 79.6444 53.9357 79.6444 48.4868C79.6444 43.0379 83.4926 38.6447 88.4148 38.6447C91.0704 38.6447 93.0092 39.8009 94.4407 41.2872L96.7981 38.6775C94.7981 36.564 92.1444 34.9465 88.4148 34.9465C81.6722 34.9465 76.0037 41.0227 76.0037 48.4868C76.0037 55.9508 81.6722 62.027 88.4148 62.027C92.0537 62.027 94.8 60.7048 96.9463 58.2284C99.1537 55.7848 99.8407 52.349 99.8407 49.5753C99.8407 48.7184 99.7815 47.9251 99.6611 47.265H88.4148V47.267ZM172.319 50.1391C171.663 48.1916 169.663 44.5897 165.576 44.5897C161.519 44.5897 158.146 48.1239 158.146 53.3084C158.146 58.1956 161.489 62.027 165.963 62.027C169.572 62.027 171.661 59.5834 172.528 58.1628L169.843 56.1804C168.948 57.6339 167.724 58.5912 165.963 58.5912C164.204 58.5912 162.95 57.6995 162.144 55.9488L172.676 51.1272L172.319 50.1391ZM161.578 53.046C161.489 49.6758 163.935 47.9599 165.696 47.9599C167.068 47.9599 168.231 48.7205 168.62 49.809L161.578 53.046ZM153.017 61.5002H156.476V35.8731H153.017V61.5002ZM147.346 46.5393H147.228C146.452 45.5143 144.959 44.5897 143.081 44.5897C139.143 44.5897 135.533 48.4212 135.533 53.3432C135.533 58.2304 139.143 62.0291 143.081 62.0291C144.961 62.0291 146.452 61.1045 147.228 60.0488H147.346V61.3034C147.346 64.6387 145.735 66.4222 143.141 66.4222C141.022 66.4222 139.709 64.7392 139.172 63.3185L136.159 64.7064C137.024 67.0167 139.32 69.858 143.141 69.858C147.198 69.858 150.63 67.2156 150.63 60.7745V45.1207H147.348V46.5393H147.346ZM143.38 58.5953C140.993 58.5953 138.994 56.3813 138.994 53.3432C138.994 50.2703 140.993 48.0255 143.38 48.0255C145.735 48.0255 147.585 50.2703 147.585 53.3432C147.585 56.3813 145.735 58.5953 143.38 58.5953ZM188.53 35.8731H180.25V61.5002H183.704V51.7914H188.528C192.357 51.7914 196.124 48.7225 196.124 43.8333C196.124 38.944 192.359 35.8731 188.53 35.8731ZM188.618 48.2244H183.704V39.4401H188.618C191.202 39.4401 192.669 41.8079 192.669 43.8333C192.669 45.8177 191.202 48.2244 188.618 48.2244ZM209.974 44.5446C207.472 44.5446 204.881 45.7644 203.809 48.4683L206.876 49.8849C207.531 48.4683 208.754 48.005 210.033 48.005C211.82 48.005 213.637 49.192 213.667 51.3014V51.5659C213.041 51.1702 211.7 50.5778 210.063 50.5778C206.757 50.5778 203.391 52.5888 203.391 56.3465C203.391 59.7761 206.102 61.984 209.139 61.984C211.461 61.984 212.743 60.8298 213.546 59.4768H213.665V61.4551H217.002V51.6294C217.004 47.0825 213.933 44.5446 209.974 44.5446ZM209.556 58.5892C208.426 58.5892 206.846 57.9619 206.846 56.4121C206.846 54.4338 208.813 53.6753 210.511 53.6753C212.028 53.6753 212.744 54.0382 213.667 54.5322C213.398 56.9082 211.552 58.5892 209.556 58.5892ZM229.154 45.1043L225.193 56.2153H225.074L220.963 45.1043H217.241L223.406 60.633L219.891 69.2717H223.494L232.996 45.1043H229.154ZM198.031 61.5002H201.485V35.8731H198.031V61.5002Z" fill="white"/>
<path d="M87.8112 20.998C87.8112 22.7159 87.352 24.0833 86.4316 25.1042C85.3871 26.3178 84.0242 26.9246 82.3501 26.9246C80.7464 26.9246 79.3816 26.3096 78.2612 25.0796C77.139 23.8475 76.5779 22.3223 76.5779 20.5019C76.5779 18.6795 77.139 17.1543 78.2612 15.9243C79.3816 14.6922 80.7464 14.0772 82.3501 14.0772C83.1464 14.0772 83.9075 14.2494 84.6297 14.5918C85.3538 14.9362 85.9334 15.3933 86.3668 15.9653L85.3908 17.0477C84.6557 16.0739 83.6427 15.5881 82.3482 15.5881C81.1779 15.5881 80.1668 16.0432 79.3131 16.9534C78.4594 17.8636 78.0334 19.0464 78.0334 20.4999C78.0334 21.9533 78.4594 23.1362 79.3131 24.0464C80.1668 24.9566 81.1779 25.4117 82.3482 25.4117C83.589 25.4117 84.6242 24.9545 85.452 24.0382C85.989 23.4416 86.3001 22.6114 86.3834 21.5474H82.3482V20.0694H87.7316C87.7871 20.3912 87.8112 20.7008 87.8112 20.998Z" fill="white"/>
<path d="M96.3484 15.8609H91.2892V19.76H95.8521V21.238H91.2892V25.1371H96.3484V26.65H89.8614V14.35H96.3484V15.8609Z" fill="white"/>
<path d="M102.369 26.65H100.941V15.8609H97.8371V14.35H105.472V15.8609H102.369V26.65Z" fill="white"/>
<path d="M110.996 26.65V14.35H112.424V26.65H110.996Z" fill="white"/>
<path d="M118.756 26.65H117.328V15.8609H114.224V14.35H121.86V15.8609H118.756V26.65Z" fill="white"/>
<path d="M136.313 25.0612C135.22 26.3035 133.863 26.9247 132.239 26.9247C130.615 26.9247 129.257 26.3035 128.167 25.0612C127.074 23.8189 126.529 22.2978 126.529 20.5C126.529 18.7021 127.074 17.181 128.167 15.9387C129.257 14.6964 130.615 14.0732 132.239 14.0732C133.854 14.0732 135.209 14.6985 136.305 15.9469C137.402 17.1954 137.95 18.7124 137.95 20.5C137.95 22.2978 137.404 23.8189 136.313 25.0612ZM129.22 24.0301C130.042 24.9526 131.048 25.4118 132.239 25.4118C133.429 25.4118 134.437 24.9505 135.257 24.0301C136.079 23.1076 136.492 21.9309 136.492 20.5C136.492 19.0691 136.079 17.8924 135.257 16.9699C134.437 16.0474 133.429 15.5882 132.239 15.5882C131.048 15.5882 130.042 16.0494 129.22 16.9699C128.4 17.8924 127.987 19.0691 127.987 20.5C127.987 21.9309 128.4 23.1076 129.22 24.0301Z" fill="white"/>
<path d="M139.954 26.65V14.35H141.691L147.091 23.9174H147.152L147.091 21.5476V14.35H148.518V26.65H147.028L141.378 16.6173H141.317L141.378 18.9871V26.65H139.954Z" fill="white"/>
<path d="M87.8112 20.998C87.8112 22.7159 87.352 24.0833 86.4316 25.1042C85.3871 26.3178 84.0242 26.9246 82.3501 26.9246C80.7464 26.9246 79.3816 26.3096 78.2612 25.0796C77.139 23.8475 76.5779 22.3223 76.5779 20.5019C76.5779 18.6795 77.139 17.1543 78.2612 15.9243C79.3816 14.6922 80.7464 14.0772 82.3501 14.0772C83.1464 14.0772 83.9075 14.2494 84.6297 14.5918C85.3538 14.9362 85.9334 15.3933 86.3668 15.9653L85.3908 17.0477C84.6557 16.0739 83.6427 15.5881 82.3482 15.5881C81.1779 15.5881 80.1668 16.0432 79.3131 16.9534C78.4594 17.8636 78.0334 19.0464 78.0334 20.4999C78.0334 21.9533 78.4594 23.1362 79.3131 24.0464C80.1668 24.9566 81.1779 25.4117 82.3482 25.4117C83.589 25.4117 84.6242 24.9545 85.452 24.0382C85.989 23.4416 86.3001 22.6114 86.3834 21.5474H82.3482V20.0694H87.7316C87.7871 20.3912 87.8112 20.7008 87.8112 20.998Z" stroke="white" stroke-width="0.2" stroke-miterlimit="10"/>
<path d="M96.3484 15.8609H91.2892V19.76H95.8521V21.238H91.2892V25.1371H96.3484V26.65H89.8614V14.35H96.3484V15.8609Z" stroke="white" stroke-width="0.2" stroke-miterlimit="10"/>
<path d="M102.369 26.65H100.941V15.8609H97.8371V14.35H105.472V15.8609H102.369V26.65Z" stroke="white" stroke-width="0.2" stroke-miterlimit="10"/>
<path d="M110.996 26.65V14.35H112.424V26.65H110.996Z" stroke="white" stroke-width="0.2" stroke-miterlimit="10"/>
<path d="M118.756 26.65H117.328V15.8609H114.224V14.35H121.86V15.8609H118.756V26.65Z" stroke="white" stroke-width="0.2" stroke-miterlimit="10"/>
<path d="M136.313 25.0612C135.22 26.3035 133.863 26.9247 132.239 26.9247C130.615 26.9247 129.257 26.3035 128.167 25.0612C127.074 23.8189 126.529 22.2978 126.529 20.5C126.529 18.7021 127.074 17.181 128.167 15.9387C129.257 14.6964 130.615 14.0732 132.239 14.0732C133.854 14.0732 135.209 14.6985 136.305 15.9469C137.402 17.1954 137.95 18.7124 137.95 20.5C137.95 22.2978 137.404 23.8189 136.313 25.0612ZM129.22 24.0301C130.042 24.9526 131.048 25.4118 132.239 25.4118C133.429 25.4118 134.437 24.9505 135.257 24.0301C136.079 23.1076 136.492 21.9309 136.492 20.5C136.492 19.0691 136.079 17.8924 135.257 16.9699C134.437 16.0474 133.429 15.5882 132.239 15.5882C131.048 15.5882 130.042 16.0494 129.22 16.9699C128.4 17.8924 127.987 19.0691 127.987 20.5C127.987 21.9309 128.4 23.1076 129.22 24.0301Z" stroke="white" stroke-width="0.2" stroke-miterlimit="10"/>
<path d="M139.954 26.65V14.35H141.691L147.091 23.9174H147.152L147.091 21.5476V14.35H148.518V26.65H147.028L141.378 16.6173H141.317L141.378 18.9871V26.65H139.954Z" stroke="white" stroke-width="0.2" stroke-miterlimit="10"/>
<g filter="url(#filter0_ii_1_170)">
<path d="M19.3259 15.4529C18.787 16.0843 18.4685 17.0642 18.4685 18.3331V63.6709C18.4685 64.9419 18.787 65.9198 19.3259 66.5512L19.463 66.6988L42.4055 41.3013V41.002V40.7027L19.463 15.3032L19.3259 15.4529Z" fill="url(#paint0_linear_1_170)"/>
<path d="M50.0518 49.77L42.4055 41.3014V41.0021V40.7028L50.0537 32.2363L50.2259 32.345L59.287 38.044C61.8741 39.6717 61.8741 42.3346 59.287 43.9644L50.2259 49.6634L50.0518 49.77Z" fill="url(#paint1_linear_1_170)"/>
<g filter="url(#filter1_i_1_170)">
<path d="M50.2259 49.6613L42.4037 41.0021L19.3259 66.5512C20.1778 67.5516 21.587 67.6746 23.1741 66.6783L50.2259 49.6613Z" fill="url(#paint2_linear_1_170)"/>
</g>
<path d="M50.2259 32.3429L23.1741 15.3279C21.587 14.3295 20.1778 14.4546 19.3259 15.455L42.4056 41.0041L50.2259 32.3429Z" fill="url(#paint3_linear_1_170)"/>
</g>
<defs>
<filter id="filter0_ii_1_170" x="18.4685" y="14.6389" width="42.7588" height="52.7275" filterUnits="userSpaceOnUse" color-interpolation-filters="sRGB">
<feFlood flood-opacity="0" result="BackgroundImageFix"/>
<feBlend mode="normal" in="SourceGraphic" in2="BackgroundImageFix" result="shape"/>
<feColorMatrix in="SourceAlpha" type="matrix" values="0 0 0 0 0 0 0 0 0 0 0 0 0 0 0 0 0 0 127 0" result="hardAlpha"/>
<feOffset dy="-0.15"/>
<feComposite in2="hardAlpha" operator="arithmetic" k2="-1" k3="1"/>
<feColorMatrix type="matrix" values="0 0 0 0 0 0 0 0 0 0 0 0 0 0 0 0 0 0 0.12 0"/>
<feBlend mode="normal" in2="shape" result="effect1_innerShadow_1_170"/>
<feColorMatrix in="SourceAlpha" type="matrix" values="0 0 0 0 0 0 0 0 0 0 0 0 0 0 0 0 0 0 127 0" result="hardAlpha"/>
<feOffset dy="0.15"/>
<feComposite in2="hardAlpha" operator="arithmetic" k2="-1" k3="1"/>
<feColorMatrix type="matrix" values="0 0 0 0 1 0 0 0 0 1 0 0 0 0 1 0 0 0 0.25 0"/>
<feBlend mode="normal" in2="effect1_innerShadow_1_170" result="effect2_innerShadow_1_170"/>
</filter>
<filter id="filter1_i_1_170" x="19.3259" y="41.0021" width="30.9" height="26.3644" filterUnits="userSpaceOnUse" color-interpolation-filters="sRGB">
<feFlood flood-opacity="0" result="BackgroundImageFix"/>
<feBlend mode="normal" in="SourceGraphic" in2="BackgroundImageFix" result="shape"/>
<feColorMatrix in="SourceAlpha" type="matrix" values="0 0 0 0 0 0 0 0 0 0 0 0 0 0 0 0 0 0 127 0" result="hardAlpha"/>
<feOffset dy="-0.15"/>
<feComposite in2="hardAlpha" operator="arithmetic" k2="-1" k3="1"/>
<feColorMatrix type="matrix" values="0 0 0 0 0 0 0 0 0 0 0 0 0 0 0 0 0 0 0.08 0"/>
<feBlend mode="normal" in2="shape" result="effect1_innerShadow_1_170"/>
</filter>
<linearGradient id="paint0_linear_1_170" x1="40.3718" y1="17.8534" x2="6.14573" y2="48.7713" gradientUnits="userSpaceOnUse">
<stop stop-color="#00A0FF"/>
<stop offset="0.0066" stop-color="#00A1FF"/>
<stop offset="0.2601" stop-color="#00BEFF"/>
<stop offset="0.5122" stop-color="#00D2FF"/>
<stop offset="0.7604" stop-color="#00DFFF"/>
<stop offset="1" stop-color="#00E3FF"/>
</linearGradient>
<linearGradient id="paint1_linear_1_170" x1="62.6546" y1="41.0021" x2="17.8474" y2="41.0021" gradientUnits="userSpaceOnUse">
<stop stop-color="#FFE000"/>
<stop offset="0.4087" stop-color="#FFBD00"/>
<stop offset="0.7754" stop-color="#FFA500"/>
<stop offset="1" stop-color="#FF9C00"/>
</linearGradient>
<linearGradient id="paint2_linear_1_170" x1="45.978" y1="45.7046" x2="-0.436936" y2="87.6331" gradientUnits="userSpaceOnUse">
<stop stop-color="#FF3A44"/>
<stop offset="1" stop-color="#C31162"/>
</linearGradient>
<linearGradient id="paint3_linear_1_170" x1="13.5137" y1="0.362462" x2="34.2392" y2="19.0847" gradientUnits="userSpaceOnUse">
<stop stop-color="#32A071"/>
<stop offset="0.0685" stop-color="#2DA771"/>
<stop offset="0.4762" stop-color="#15CF74"/>
<stop offset="0.8009" stop-color="#06E775"/>
<stop offset="1" stop-color="#00F076"/>
</linearGradient>
</defs>
</svg>
