<svg width="250" height="82" viewBox="0 0 250 82" fill="none" xmlns="http://www.w3.org/2000/svg">
<rect x="0.5" y="0.5" width="249" height="81" rx="6.5" fill="#0C0D10"/>
<rect x="0.5" y="0.5" width="249" height="81" rx="6.5" stroke="#A6A6A6"/>
<path d="M169.846 39.3619V44.0584H166.854V47.1384H169.846V57.6037C169.846 61.1771 171.488 62.6065 175.622 62.6065C176.348 62.6065 177.04 62.5215 177.645 62.4194V59.3734C177.126 59.4244 176.798 59.4585 176.227 59.4585C174.376 59.4585 173.564 58.6076 173.564 56.6677V47.1384H177.645V44.0584H173.564V39.3619H169.846Z" fill="white"/>
<path d="M188.174 62.8618C193.673 62.8618 197.045 59.2373 197.045 53.2304C197.045 47.2576 193.656 43.616 188.174 43.616C182.674 43.616 179.285 47.2576 179.285 53.2304C179.285 59.2373 182.657 62.8618 188.174 62.8618ZM188.174 59.6116C184.94 59.6116 183.124 57.2803 183.124 53.2304C183.124 49.2145 184.94 46.8662 188.174 46.8662C191.39 46.8662 193.223 49.2145 193.223 53.2304C193.223 57.2633 191.39 59.6116 188.174 59.6116Z" fill="white"/>
<path d="M199.93 62.5044H203.648V51.5628C203.648 48.9592 205.637 47.2065 208.456 47.2065C209.113 47.2065 210.22 47.3256 210.531 47.4277V43.8202C210.133 43.7181 209.424 43.6671 208.871 43.6671C206.415 43.6671 204.323 44.9944 203.787 46.8151H203.51V43.9734H199.93V62.5044Z" fill="white"/>
<path d="M219.763 46.73C222.513 46.73 224.311 48.6189 224.398 51.5287H214.886C215.094 48.6359 217.013 46.73 219.763 46.73ZM224.38 57.5016C223.689 58.948 222.15 59.7477 219.901 59.7477C216.927 59.7477 215.007 57.6887 214.886 54.4386V54.2344H228.185V52.9581C228.185 47.1384 225.02 43.616 219.78 43.616C214.471 43.616 211.099 47.3767 211.099 53.2985C211.099 59.2202 214.402 62.8618 219.798 62.8618C224.104 62.8618 227.113 60.8198 227.96 57.5016H224.38Z" fill="white"/>
<path d="M145.463 55.6612C145.75 60.2116 149.604 63.1217 155.339 63.1217C161.469 63.1217 165.305 60.0705 165.305 55.2026C165.305 51.3754 163.118 49.2589 157.813 48.0419L154.963 47.3541C151.593 46.578 150.231 45.5374 150.231 43.7208C150.231 41.428 152.346 39.9288 155.519 39.9288C158.53 39.9288 160.609 41.3927 160.985 43.7384H164.893C164.66 39.4526 160.824 36.4366 155.572 36.4366C149.926 36.4366 146.162 39.4526 146.162 43.9854C146.162 47.7245 148.295 49.9467 152.973 51.0226L156.307 51.8163C159.731 52.61 161.236 53.774 161.236 55.7141C161.236 57.9717 158.87 59.6119 155.644 59.6119C152.185 59.6119 149.783 58.0775 149.442 55.6612H145.463Z" fill="white"/>
<path d="M106.948 43.6671C104.388 43.6671 102.175 44.9263 101.034 47.0363H100.757V43.9734H97.1772V68.6644H100.895V59.6967H101.189C102.175 61.6536 104.302 62.8107 106.982 62.8107C111.738 62.8107 114.764 59.1181 114.764 53.2304C114.764 47.3426 111.738 43.6671 106.948 43.6671ZM105.893 59.5265C102.78 59.5265 100.826 57.1102 100.826 53.2474C100.826 49.3676 102.78 46.9513 105.91 46.9513C109.058 46.9513 110.943 49.3166 110.943 53.2304C110.943 57.1612 109.058 59.5265 105.893 59.5265Z" fill="white"/>
<path d="M127.775 43.6671C125.215 43.6671 123.002 44.9263 121.86 47.0363H121.584V43.9734H118.004V68.6644H121.722V59.6967H122.016C123.002 61.6536 125.129 62.8107 127.809 62.8107C132.565 62.8107 135.591 59.1181 135.591 53.2304C135.591 47.3426 132.565 43.6671 127.775 43.6671ZM126.72 59.5265C123.607 59.5265 121.653 57.1102 121.653 53.2474C121.653 49.3676 123.607 46.9513 126.737 46.9513C129.884 46.9513 131.769 49.3166 131.769 53.2304C131.769 57.1612 129.884 59.5265 126.72 59.5265Z" fill="white"/>
<path d="M90.5063 62.5044H94.7722L85.4338 37.0539H81.1142L71.7758 62.5044H75.8983L78.2822 55.7494H88.1404L90.5063 62.5044ZM83.0679 41.6749H83.3726L87.1187 52.4336H79.3038L83.0679 41.6749Z" fill="white"/>
<path d="M74.2732 17.8574V30.1349H78.7781C82.4962 30.1349 84.6492 27.8802 84.6492 23.9578C84.6492 20.0951 82.4789 17.8574 78.7781 17.8574H74.2732ZM76.21 19.5931H78.5619C81.1473 19.5931 82.6777 21.2097 82.6777 23.9834C82.6777 26.7996 81.1732 28.3992 78.5619 28.3992H76.21V19.5931Z" fill="white"/>
<path d="M91.2431 30.3135C93.9927 30.3135 95.6788 28.5013 95.6788 25.4978C95.6788 22.5114 93.9841 20.6906 91.2431 20.6906C88.4935 20.6906 86.7987 22.5114 86.7987 25.4978C86.7987 28.5013 88.4848 30.3135 91.2431 30.3135ZM91.2431 28.6885C89.6262 28.6885 88.7183 27.5228 88.7183 25.4978C88.7183 23.4899 89.6262 22.3157 91.2431 22.3157C92.8514 22.3157 93.7679 23.4899 93.7679 25.4978C93.7679 27.5143 92.8514 28.6885 91.2431 28.6885Z" fill="white"/>
<path d="M110.037 20.8693H108.178L106.501 27.9397H106.354L104.417 20.8693H102.636L100.699 27.9397H100.561L98.8746 20.8693H96.9897L99.5837 30.1349H101.495L103.431 23.3112H103.578L105.524 30.1349H107.452L110.037 20.8693Z" fill="white"/>
<path d="M112.178 30.1349H114.037V24.7151C114.037 23.2687 114.911 22.3668 116.286 22.3668C117.66 22.3668 118.317 23.107 118.317 24.596V30.1349H120.177V24.1365C120.177 21.9329 119.018 20.6906 116.917 20.6906C115.499 20.6906 114.565 21.3118 114.107 22.3413H113.968V20.8693H112.178V30.1349Z" fill="white"/>
<path d="M123.104 30.1349H124.963V17.2533H123.104V30.1349Z" fill="white"/>
<path d="M131.955 30.3135C134.705 30.3135 136.391 28.5013 136.391 25.4978C136.391 22.5114 134.696 20.6906 131.955 20.6906C129.205 20.6906 127.511 22.5114 127.511 25.4978C127.511 28.5013 129.197 30.3135 131.955 30.3135ZM131.955 28.6885C130.338 28.6885 129.43 27.5228 129.43 25.4978C129.43 23.4899 130.338 22.3157 131.955 22.3157C133.563 22.3157 134.48 23.4899 134.48 25.4978C134.48 27.5143 133.563 28.6885 131.955 28.6885Z" fill="white"/>
<path d="M141.93 28.748C140.918 28.748 140.183 28.263 140.183 27.4292C140.183 26.6124 140.771 26.1785 142.068 26.0934L144.368 25.9488V26.723C144.368 27.8717 143.331 28.748 141.93 28.748ZM141.454 30.288C142.691 30.288 143.72 29.7605 144.282 28.8331H144.429V30.1349H146.218V23.8047C146.218 21.8478 144.887 20.6906 142.526 20.6906C140.391 20.6906 138.869 21.7116 138.679 23.3027H140.477C140.685 22.6476 141.402 22.2732 142.44 22.2732C143.711 22.2732 144.368 22.8262 144.368 23.8047V24.6045L141.817 24.7491C139.578 24.8852 138.315 25.8467 138.315 27.5143C138.315 29.2075 139.638 30.288 141.454 30.288Z" fill="white"/>
<path d="M152.527 30.288C153.824 30.288 154.922 29.6839 155.484 28.6714H155.631V30.1349H157.412V17.2533H155.553V22.3413H155.415C154.905 21.3203 153.815 20.7162 152.527 20.7162C150.149 20.7162 148.619 22.571 148.619 25.4978C148.619 28.4332 150.132 30.288 152.527 30.288ZM153.055 22.3583C154.611 22.3583 155.588 23.575 155.588 25.5063C155.588 27.4462 154.62 28.6459 153.055 28.6459C151.481 28.6459 150.538 27.4633 150.538 25.4978C150.538 23.5494 151.489 22.3583 153.055 22.3583Z" fill="white"/>
<path d="M169.468 30.3135C172.217 30.3135 173.903 28.5013 173.903 25.4978C173.903 22.5114 172.209 20.6906 169.468 20.6906C166.718 20.6906 165.023 22.5114 165.023 25.4978C165.023 28.5013 166.709 30.3135 169.468 30.3135ZM169.468 28.6885C167.851 28.6885 166.943 27.5228 166.943 25.4978C166.943 23.4899 167.851 22.3157 169.468 22.3157C171.076 22.3157 171.992 23.4899 171.992 25.4978C171.992 27.5143 171.076 28.6885 169.468 28.6885Z" fill="white"/>
<path d="M176.364 30.1349H178.223V24.7151C178.223 23.2687 179.097 22.3668 180.471 22.3668C181.846 22.3668 182.503 23.107 182.503 24.596V30.1349H184.362V24.1365C184.362 21.9329 183.204 20.6906 181.103 20.6906C179.684 20.6906 178.751 21.3118 178.292 22.3413H178.154V20.8693H176.364V30.1349Z" fill="white"/>
<path d="M192.924 18.5636V20.9119H191.428V22.4519H192.924V27.6845C192.924 29.4712 193.746 30.1859 195.812 30.1859C196.175 30.1859 196.521 30.1434 196.824 30.0923V28.5693C196.564 28.5949 196.4 28.6119 196.115 28.6119C195.19 28.6119 194.783 28.1865 194.783 27.2165V22.4519H196.824V20.9119H194.783V18.5636H192.924Z" fill="white"/>
<path d="M199.319 30.1349H201.178V24.7236C201.178 23.3197 202.026 22.3753 203.547 22.3753C204.862 22.3753 205.562 23.124 205.562 24.6045V30.1349H207.421V24.1535C207.421 21.9499 206.185 20.6992 204.179 20.6992C202.761 20.6992 201.766 21.3203 201.308 22.3583H201.161V17.2533H199.319V30.1349Z" fill="white"/>
<path d="M214.128 22.2477C215.502 22.2477 216.402 23.1921 216.445 24.647H211.689C211.793 23.2006 212.753 22.2477 214.128 22.2477ZM216.436 27.6334C216.09 28.3566 215.321 28.7565 214.197 28.7565C212.709 28.7565 211.75 27.727 211.689 26.1019V25.9998H218.338V25.3617C218.338 22.4519 216.756 20.6906 214.136 20.6906C211.482 20.6906 209.796 22.571 209.796 25.5319C209.796 28.4928 211.447 30.3135 214.145 30.3135C216.298 30.3135 217.802 29.2925 218.226 27.6334H216.436Z" fill="white"/>
<path d="M51.6021 41.6167C51.6472 38.1706 53.528 34.9099 56.5116 33.105C54.6294 30.4598 51.4767 28.7827 48.1967 28.6817C44.6983 28.3204 41.3067 30.7416 39.524 30.7416C37.7067 30.7416 34.9619 28.7176 32.0063 28.7774C28.1536 28.8999 24.562 31.0553 22.6877 34.3696C18.6585 41.2338 21.6639 51.322 25.5235 56.8705C27.4545 59.5875 29.7114 62.6224 32.6644 62.5148C35.5541 62.3969 36.6334 60.7016 40.1215 60.7016C43.5772 60.7016 44.5898 62.5148 47.6027 62.4464C50.7035 62.3968 52.6572 59.7173 54.5205 56.9746C55.9079 55.0387 56.9756 52.8991 57.6838 50.635C54.0398 49.1184 51.6063 45.5099 51.6021 41.6167Z" fill="white"/>
<path d="M45.9111 25.0327C47.6018 23.0356 48.4347 20.4686 48.233 17.877C45.6501 18.1439 43.2641 19.3587 41.5506 21.2792C39.875 23.1556 39.003 25.6774 39.1678 28.17C41.7518 28.1962 44.292 27.0144 45.9111 25.0327Z" fill="white"/>
</svg>
