<svg width="37" height="27" viewBox="0 0 37 27" fill="none" xmlns="http://www.w3.org/2000/svg">
<path d="M15.184 4.41599C15.248 4.41599 14.992 4.8 14.416 5.568C13.84 6.336 13.168 7.296 12.4 8.448C11.696 9.536 11.088 10.624 10.576 11.712C12.688 12.288 14.192 13.28 15.088 14.688C16.048 16.096 16.528 17.536 16.528 19.008C16.528 21.376 15.76 23.296 14.224 24.768C12.688 26.24 10.704 26.976 8.272 26.976C6.096 26.976 4.176 26.144 2.512 24.48C0.848 22.816 0.0160002 20.832 0.0160002 18.528C0.0160002 16.48 0.464 14.496 1.36 12.576C2.32 10.656 3.472 8.896 4.816 7.296C6.16 5.696 7.44 4.288 8.656 3.07199C9.936 1.856 10.896 0.927996 11.536 0.287996L15.184 4.41599ZM35.632 4.41599C35.696 4.41599 35.44 4.8 34.864 5.568C34.288 6.336 33.616 7.296 32.848 8.448C32.144 9.536 31.536 10.624 31.024 11.712C33.136 12.288 34.64 13.28 35.536 14.688C36.496 16.096 36.976 17.536 36.976 19.008C36.976 21.376 36.208 23.296 34.672 24.768C33.136 26.24 31.152 26.976 28.72 26.976C26.608 26.976 24.688 26.144 22.96 24.48C21.296 22.816 20.464 20.832 20.464 18.528C20.464 16.48 20.912 14.528 21.808 12.672C22.768 10.752 23.92 8.992 25.264 7.392C26.608 5.728 27.888 4.288 29.104 3.07199C30.384 1.856 31.344 0.927996 31.984 0.287996L35.632 4.41599Z" fill="#90B8CD"/>
</svg>
