<svg width="38" height="27" viewBox="0 0 38 27" fill="none" xmlns="http://www.w3.org/2000/svg">
<path d="M2.128 22.848C2.128 22.784 2.416 22.4 2.992 21.696C3.568 20.928 4.24 20 5.008 18.912C5.776 17.76 6.384 16.64 6.832 15.552C4.656 14.976 3.12 14.016 2.224 12.672C1.328 11.264 0.88 9.792 0.88 8.256C0.88 5.888 1.648 3.968 3.184 2.496C4.784 1.024 6.768 0.287996 9.136 0.287996C11.248 0.287996 13.136 1.12 14.8 2.784C16.528 4.448 17.392 6.432 17.392 8.736C17.392 10.976 16.912 13.056 15.952 14.976C15.056 16.896 13.936 18.656 12.592 20.256C11.248 21.792 9.936 23.136 8.656 24.288C7.376 25.376 6.416 26.272 5.776 26.976L2.128 22.848ZM22.672 22.848C22.672 22.784 22.928 22.4 23.44 21.696C24.016 20.928 24.688 20 25.456 18.912C26.224 17.76 26.832 16.64 27.28 15.552C25.168 14.976 23.632 14.016 22.672 12.672C21.776 11.264 21.328 9.792 21.328 8.256C21.328 5.888 22.096 3.968 23.632 2.496C25.232 1.024 27.216 0.287996 29.584 0.287996C31.696 0.287996 33.584 1.12 35.248 2.784C36.976 4.448 37.84 6.432 37.84 8.736C37.84 10.848 37.36 12.864 36.4 14.784C35.504 16.704 34.384 18.464 33.04 20.064C31.696 21.664 30.384 23.04 29.104 24.192C27.888 25.344 26.96 26.272 26.32 26.976L22.672 22.848Z" fill="#90B8CD"/>
</svg>
